<?xml version="1.0" encoding="UTF-8" standalone="no"?>
<svg
   width="22pt"
   height="22pt"
   class="tc-linkify-button tc-image-button"
   viewBox="0 0 128 128"
   version="1.1"
   id="svg44"
   xmlns="http://www.w3.org/2000/svg"
   xmlns:svg="http://www.w3.org/2000/svg">
  <defs
     id="defs48" />
  <path
     fill-rule="evenodd"
     d="M 17.031,31.919 H 9.048 V 96.85 h 7.983 v 6.92 H 0 V 25 h 17.031 z m 24.66,0 H 33.708 V 96.85 h 7.983 v 6.92 H 24.66 V 25 h 17.03 v 6.919 z M 86.31,96.85 h 7.982 V 31.92 H 86.31 V 25 h 17.031 v 78.77 H 86.31 Z m 24.659,0 h 7.983 V 31.92 h -7.983 V 25 H 128 v 78.77 h -17.031 z"
     id="path42" />
  <rect
     style="fill:#000000;stroke-width:4.1723"
     id="rect706"
     width="22.801205"
     height="4.9524221"
     x="51.715187"
     y="61.908791" />
  <path
     id="path897"
     style="fill:#000000;stroke-width:2.1088"
     d="m 62.181354,48.796935 h -8.49716 a 15.585025,15.585025 0 0 0 -15.58806,15.58807 15.585025,15.585025 0 0 0 15.58806,15.58806 h 8.49716 v -4.78977 h -6.53693 a 11.984502,10.736836 0 0 1 -11.98295,-10.73863 11.984502,10.736836 0 0 1 11.98295,-10.73864 h 6.53693 z" />
  <path
     id="path1271"
     style="fill:#000000;stroke-width:2.1088"
     d="m 65.464503,48.796935 v 4.90909 h 6.53694 a 11.984502,10.736836 0 0 1 11.98295,10.73864 11.984502,10.736836 0 0 1 -11.98295,10.73863 h -6.53694 v 4.78977 h 8.50569 a 15.585025,15.585025 0 0 0 15.57954,-15.58806 15.585025,15.585025 0 0 0 -15.57954,-15.58807 z" />
</svg>
